# xmcd CD database file
#
# Track frame offsets:
#	150
#	12962
#	29760
#	40777
#	55415
#	78170
#	95437
#	113395
#	129155
#	146265
#
# Disc length: 2137 seconds
#
# Revision: 0
# Processed by: cddbd v1.5.1PL0 Copyright (c) Steve Scherf et al.
# Submitted via: CDex 1.51
#
DISCID=7208570a
DTITLE=Quincy Jones - Golden Boy
DYEAR=1964
DGENRE=Jazz
TTITLE0=Theme From Golden Boy
TTITLE1=The Wiching Hour
TTITLE2=Seweed
TTITLE3=Golden Boy
TTITLE4=Django
TTITLE5=Soul Serenade
TTITLE6=Theme Golden Boy
TTITLE7=Hard Day's Night
TTITLE8=The Sidewinder
TTITLE9=The Midnight Sun Will Never Set
EXTD=YEAR: 1964
EXTT0=
EXTT1=
EXTT2=
EXTT3=
EXTT4=
EXTT5=
EXTT6=
EXTT7=
EXTT8=
EXTT9=
PLAYORDER=
